<svg xmlns="http://www.w3.org/2000/svg" viewBox="0 0 256 256" role="img" aria-labelledby="title">
  <title>AIChatApp logo</title>
  <defs>
    <linearGradient id="bg" x1="30" y1="26" x2="226" y2="230" gradientUnits="userSpaceOnUse">
      <stop offset="0" stop-color="#8ee3da"/>
      <stop offset="0.52" stop-color="#159487"/>
      <stop offset="1" stop-color="#0b5f59"/>
    </linearGradient>
  </defs>
  <rect x="28" y="28" width="200" height="200" rx="44" fill="url(#bg)"/>
  <g>
    <path d="M128 62c-42.8 0-77.5 29.6-77.5 66.1 0 15.4 6.2 29.6 16.7 40.8l-8.4 34.7 38.4-16.2c9.5 4.3 20 6.7 30.8 6.7 42.8 0 77.5-29.6 77.5-66S170.8 62 128 62Zm0 20.5c30.9 0 56.9 20.9 56.9 45.6s-26 45.6-56.9 45.6c-9.2 0-18.2-1.9-26.1-5.4l-4.2-1.9-13 5.5 2.8-11.7-4.8-5.2c-7.7-8.2-11.8-17.5-11.8-26.9 0-24.7 26-45.6 57.1-45.6Z" fill="#f7faf9"/>
    <circle cx="104" cy="128" r="8.5" fill="#f7faf9"/>
    <circle cx="128" cy="128" r="8.5" fill="#f7faf9"/>
    <circle cx="152" cy="128" r="8.5" fill="#f7faf9"/>
  </g>
</svg>
